<svg xmlns="http://www.w3.org/2000/svg" viewBox="0 0 64 64" role="img" aria-labelledby="title description">
  <title id="title">思想银河标志</title>
  <desc id="description">一颗思想星与三个观点节点沿手绘轨道相连</desc>
  <g fill="none" stroke-linecap="round" stroke-linejoin="round">
    <path
      d="M10.5 35.3C8.9 22.5 18.5 11.5 31.8 10.7c8.7-.5 16.6 3.4 21.1 9.7"
      stroke="#f5f5f5"
      stroke-width="2.8"
    />
    <path
      d="M54.6 27.3c2.3 12.2-6.2 23.6-19.1 25.7-9 1.5-17.8-2.1-22.7-8.8"
      stroke="#1772f6"
      stroke-width="2.8"
    />
    <path
      d="M12.3 31.8C14.6 19.6 25.2 12.4 37 13.1"
      stroke="#f5f5f5"
      stroke-opacity=".34"
      stroke-width="1.15"
    />
    <path
      d="M52 31.3c.3 10.9-8.1 19.5-19.4 20.2"
      stroke="#1772f6"
      stroke-opacity=".34"
      stroke-width="1.15"
    />
  </g>
  <circle cx="12.2" cy="35.5" r="4.7" fill="#0b0b0b" stroke="#f5f5f5" stroke-width="2.2" />
  <circle cx="53.1" cy="22.5" r="4.7" fill="#0b0b0b" stroke="#1772f6" stroke-width="2.2" />
  <circle cx="46.8" cy="46.4" r="2.4" fill="#1772f6" />
  <path
    d="M32 21.1c1.1 5.9 4 8.8 9.9 9.9-5.9 1.1-8.8 4-9.9 9.9-1.1-5.9-4-8.8-9.9-9.9 5.9-1.1 8.8-4 9.9-9.9Z"
    fill="#f5f5f5"
    stroke="#0b0b0b"
    stroke-width="1.3"
    stroke-linejoin="round"
  />
  <circle cx="32" cy="31" r="2.3" fill="#1772f6" />
</svg>
