<svg xmlns="http://www.w3.org/2000/svg" viewBox="0 0 64 64" role="img" aria-labelledby="title description">
  <title id="title">思想银河</title>
  <desc id="description">黑色底板上的蓝色观点轨道与白色思想星</desc>
  <rect x="1" y="1" width="62" height="62" rx="14" fill="#08090c" stroke="#20242c" stroke-width="2" />
  <path
    d="M10.5 35.3C8.9 22.5 18.5 11.5 31.8 10.7c8.7-.5 16.6 3.4 21.1 9.7"
    fill="none"
    stroke="#1772f6"
    stroke-width="2.8"
    stroke-linecap="round"
  />
  <path
    d="M54.6 27.3c2.3 12.2-6.2 23.6-19.1 25.7-9 1.5-17.8-2.1-22.7-8.8"
    fill="none"
    stroke="#69a5ff"
    stroke-width="2.8"
    stroke-linecap="round"
  />
  <circle cx="12.2" cy="35.5" r="4.7" fill="#08090c" stroke="#1772f6" stroke-width="2.2" />
  <circle cx="53.1" cy="22.5" r="4.7" fill="#08090c" stroke="#69a5ff" stroke-width="2.2" />
  <circle cx="46.8" cy="46.4" r="2.4" fill="#1772f6" />
  <path
    d="M32 21.1c1.1 5.9 4 8.8 9.9 9.9-5.9 1.1-8.8 4-9.9 9.9-1.1-5.9-4-8.8-9.9-9.9 5.9-1.1 8.8-4 9.9-9.9Z"
    fill="#f5f7fa"
    stroke="#08090c"
    stroke-width="1.3"
    stroke-linejoin="round"
  />
  <circle cx="32" cy="31" r="2.3" fill="#1772f6" />
</svg>
